<svg xmlns="http://www.w3.org/2000/svg" viewBox="0 0 100 100" width="100" height="100" fill="none">
  <circle cx="50" cy="50" r="46" fill="#FFF5F7" stroke="#EE8297" stroke-width="3"/>
  <g transform="translate(0, 8)">
    <!-- Center Petal -->
    <path d="M50 5 C45 25 40 45 50 65 C60 45 55 25 50 5 Z" fill="#D4AF37" fill-opacity="0.35" stroke="#D4AF37" stroke-width="3" stroke-linejoin="round"/>
    <!-- Left Inner Petal -->
    <path d="M50 65 C35 55 25 35 25 22 C38 25 46 42 50 65 Z" fill="#D4AF37" fill-opacity="0.25" stroke="#D4AF37" stroke-width="2.5" stroke-linejoin="round"/>
    <!-- Right Inner Petal -->
    <path d="M50 65 C65 55 75 35 75 22 C62 25 54 42 50 65 Z" fill="#D4AF37" fill-opacity="0.25" stroke="#D4AF37" stroke-width="2.5" stroke-linejoin="round"/>
    <!-- Left Outer Petal -->
    <path d="M50 65 C25 62 10 45 10 32 C28 35 42 50 50 65 Z" stroke="#D4AF37" stroke-width="2.5" fill="none" stroke-linejoin="round"/>
    <!-- Right Outer Petal -->
    <path d="M50 65 C75 62 90 45 90 32 C72 35 58 50 50 65 Z" stroke="#D4AF37" stroke-width="2.5" fill="none" stroke-linejoin="round"/>
    <!-- Base Stem Curve -->
    <path d="M30 68 Q 50 78 70 68" stroke="#D4AF37" stroke-width="2.5" fill="none" stroke-linecap="round"/>
  </g>
</svg>